<svg width="16" height="17" viewBox="0 0 16 17" fill="none" xmlns="http://www.w3.org/2000/svg">
<path d="M7.49919 16.2096C7.31086 16.016 7.21224 15.7695 7.20333 15.4703C7.19443 15.1711 7.28449 14.9246 7.47351 14.731L12.5072 9.55611H1.02729C0.736225 9.55611 0.492074 9.45472 0.294835 9.25195C0.0975959 9.04917 -0.000681303 8.79853 3.55462e-06 8.5C3.55462e-06 8.20077 0.0986231 7.94977 0.295862 7.747C0.493101 7.54422 0.73691 7.44319 1.02729 7.44389H12.5072L7.47351 2.26898C7.28517 2.07536 7.19512 1.82893 7.20333 1.5297C7.21155 1.23047 7.31017 0.984048 7.49919 0.790429C7.68753 0.596809 7.92723 0.5 8.21829 0.5C8.50936 0.5 8.74906 0.596809 8.93739 0.790429L15.7175 7.76073C15.8202 7.84873 15.8931 7.95892 15.9363 8.09129C15.9794 8.22365 16.0007 8.35989 16 8.5C16 8.64081 15.9788 8.77283 15.9363 8.89604C15.8938 9.01925 15.8209 9.13366 15.7175 9.23927L8.93739 16.2096C8.74906 16.4032 8.50936 16.5 8.21829 16.5C7.92723 16.5 7.68753 16.4032 7.49919 16.2096Z" fill="black"/>
</svg>
