<svg width="17" height="17" viewBox="0 0 17 17" fill="none" xmlns="http://www.w3.org/2000/svg">
<path d="M11.0547 9.98828L12.1914 10.2754C11.9531 11.209 11.5234 11.9219 10.9023 12.4141C10.2852 12.9023 9.5293 13.1465 8.63477 13.1465C7.70898 13.1465 6.95508 12.959 6.37305 12.584C5.79492 12.2051 5.35352 11.6582 5.04883 10.9434C4.74805 10.2285 4.59766 9.46094 4.59766 8.64062C4.59766 7.74609 4.76758 6.9668 5.10742 6.30273C5.45117 5.63477 5.9375 5.12891 6.56641 4.78516C7.19922 4.4375 7.89453 4.26367 8.65234 4.26367C9.51172 4.26367 10.2344 4.48242 10.8203 4.91992C11.4062 5.35742 11.8145 5.97266 12.0449 6.76562L10.9258 7.0293C10.7266 6.4043 10.4375 5.94922 10.0586 5.66406C9.67969 5.37891 9.20312 5.23633 8.62891 5.23633C7.96875 5.23633 7.41602 5.39453 6.9707 5.71094C6.5293 6.02734 6.21875 6.45312 6.03906 6.98828C5.85938 7.51953 5.76953 8.06836 5.76953 8.63477C5.76953 9.36523 5.875 10.0039 6.08594 10.5508C6.30078 11.0938 6.63281 11.5 7.08203 11.7695C7.53125 12.0391 8.01758 12.1738 8.54102 12.1738C9.17773 12.1738 9.7168 11.9902 10.1582 11.623C10.5996 11.2559 10.8984 10.7109 11.0547 9.98828Z" fill="white"/>
<rect x="0.5" y="0.5" width="16" height="16" rx="8" stroke="white"/>
</svg>
