<svg width="22" height="24" viewBox="0 0 22 24" fill="none" xmlns="http://www.w3.org/2000/svg">
<path d="M10.9478 0C10.5915 0 10.2351 0.0798498 9.95912 0.239549L1.14605 5.33747C0.593912 5.65687 0.593912 6.16193 1.14605 6.48133L9.95912 11.5793C10.5113 11.8987 11.3844 11.8987 11.9364 11.5793L20.7495 6.48133C21.3017 6.16199 21.3017 5.65687 20.7495 5.33753L11.9364 0.239607C11.6604 0.0797921 11.3041 0 10.9478 0ZM4.17948 4.76618C4.17944 4.76618 4.17952 4.76618 4.17948 4.76618C4.64006 4.77817 5.07647 4.89213 5.40244 5.08558C5.74816 5.29073 5.94237 5.56897 5.94236 5.85909C5.94235 6.14921 5.74811 6.42745 5.40237 6.63259C5.05662 6.83773 4.58771 6.95298 4.09877 6.95297C3.60983 6.95296 3.14092 6.8377 2.7952 6.63255C2.53254 6.47668 2.35537 6.27736 2.28689 6.06071C2.21842 5.84407 2.26185 5.6202 2.41148 5.41845C2.56112 5.2167 2.80998 5.04648 3.12545 4.9301C3.44093 4.81371 3.80836 4.75654 4.17948 4.76618ZM11.0013 4.78031C11.3635 4.7835 11.7161 4.84994 12.0151 4.97133C12.3141 5.09272 12.5461 5.26369 12.6823 5.46287C12.8185 5.66206 12.8527 5.88064 12.7808 6.09131C12.7089 6.30198 12.5339 6.49541 12.2778 6.64743C12.1072 6.75056 11.9039 6.8326 11.6795 6.88883C11.4552 6.94506 11.2143 6.97435 10.9708 6.97502C10.7273 6.97569 10.4859 6.94773 10.2607 6.89274C10.0355 6.83775 9.83087 6.75683 9.65867 6.65465C9.48646 6.55247 9.35008 6.43106 9.25741 6.29743C9.16473 6.1638 9.11759 6.02059 9.11871 5.87609C9.11984 5.73159 9.1692 5.58865 9.26396 5.45553C9.35871 5.32241 9.49697 5.20175 9.67076 5.10052C9.84516 4.99706 10.0528 4.91541 10.2813 4.86041C10.5098 4.8054 10.7547 4.77817 11.0013 4.78031ZM17.9053 4.78118C17.9052 4.78118 17.9053 4.78118 17.9053 4.78118C18.3658 4.79315 18.8022 4.90709 19.1282 5.10052C19.4714 5.30598 19.6635 5.58374 19.6624 5.87303C19.6613 6.16231 19.4671 6.43956 19.1224 6.64411C18.7776 6.84865 18.3104 6.96384 17.8228 6.96446C17.3353 6.96509 16.8672 6.8511 16.521 6.64743C16.2584 6.49156 16.0812 6.29224 16.0128 6.0756C15.9443 5.85896 15.9878 5.63511 16.1374 5.43337C16.287 5.23163 16.5359 5.06142 16.8513 4.94504C17.1668 4.82866 17.5342 4.77155 17.9053 4.78118ZM0.557564 7.44703C0.225645 7.43808 0 7.69719 0 8.15552V17.2538C0 17.8914 0.436751 18.6479 0.988891 18.9667L9.466 23.862C10.0181 24.1809 10.4549 23.9287 10.4549 23.2911V14.1927C10.4549 13.5551 10.0181 12.7988 9.466 12.4799L0.988891 7.58463C0.833692 7.49492 0.687435 7.45049 0.557564 7.44703ZM21.3723 7.44714C21.2425 7.45061 21.0964 7.49503 20.9411 7.58475L12.4637 12.48C11.9116 12.7989 11.4748 13.5553 11.4748 14.1929V23.2914C11.4748 23.929 11.9116 24.181 12.4637 23.862L20.9412 18.967C21.4933 18.6481 21.9299 17.8918 21.9299 17.2541V8.15564C21.9299 7.69742 21.7043 7.43826 21.3723 7.44714ZM7.8056 12.4431C8.00308 12.4294 8.22739 12.4913 8.45587 12.6227C8.68436 12.7541 8.90893 12.9502 9.10688 13.1913C9.30484 13.4323 9.46917 13.7098 9.58327 13.9956C9.69737 14.2815 9.75721 14.5655 9.75673 14.8191C9.75693 15.0088 9.7235 15.1772 9.65835 15.3148C9.5932 15.4524 9.49761 15.5564 9.37704 15.6209C9.25648 15.6854 9.11331 15.7092 8.95571 15.6908C8.79811 15.6724 8.62918 15.6122 8.45857 15.5137C8.28797 15.4152 8.11904 15.2803 7.96144 15.1168C7.80385 14.9532 7.66067 14.7641 7.54011 14.5604C7.41955 14.3567 7.32397 14.1423 7.25882 13.9295C7.19368 13.7167 7.16025 13.5096 7.16046 13.3202C7.15999 13.0671 7.21934 12.8528 7.33257 12.6989C7.4458 12.5449 7.60893 12.4567 7.8056 12.4431ZM17.3554 14.0969C17.3554 14.0969 17.3555 14.0969 17.3554 14.0969C17.5521 14.1106 17.7153 14.1988 17.8285 14.3528C17.9417 14.5067 18.0011 14.721 18.0006 14.9741C18.0002 15.3566 17.8632 15.802 17.6198 16.2127C17.3764 16.6233 17.0465 16.9656 16.7025 17.1642C16.3584 17.3628 16.0285 17.4016 15.7851 17.272C15.5417 17.1424 15.4047 16.855 15.4043 16.473C15.4038 16.2194 15.4637 15.9353 15.5778 15.6495C15.6919 15.3637 15.8562 15.0862 16.0542 14.8452C16.2521 14.6041 16.4767 14.408 16.7052 14.2766C16.9336 14.1452 17.158 14.0832 17.3554 14.0969ZM1.34377 15.792C1.54125 15.7783 1.76557 15.8403 1.99406 15.9717C2.22255 16.1031 2.44712 16.2992 2.64507 16.5403C2.84303 16.7813 3.00736 17.0588 3.12146 17.3446C3.23556 17.6305 3.29539 17.9145 3.2949 18.1681C3.2951 18.3578 3.26167 18.5262 3.19652 18.6638C3.13137 18.8014 3.03578 18.9054 2.91522 18.9699C2.79465 19.0344 2.65148 19.0582 2.49388 19.0398C2.33628 19.0214 2.16735 18.9612 1.99674 18.8627C1.82614 18.7642 1.65721 18.6293 1.49961 18.4658C1.34202 18.3022 1.19885 18.1131 1.07828 17.9094C0.957722 17.7057 0.862137 17.4913 0.796992 17.2785C0.731848 17.0657 0.698423 16.8587 0.698628 16.6692C0.698147 16.4161 0.757497 16.2018 0.870728 16.0478C0.983959 15.8939 1.14709 15.8057 1.34377 15.792Z" fill="white" fill-opacity="0.6"/>
</svg>
