<svg width="21" height="16" viewBox="0 0 21 16" fill="none" xmlns="http://www.w3.org/2000/svg">
<path d="M5.48662 6.01199C5.26428 6.01199 5.05091 6.04606 4.83854 6.07712C4.90734 5.84466 4.97813 5.60819 5.09179 5.39576C5.20545 5.08714 5.38292 4.81961 5.5594 4.55007C5.70696 4.25849 5.96718 4.06109 6.15861 3.81159C6.35902 3.56911 6.63221 3.40778 6.84856 3.20638C7.06093 2.99596 7.3391 2.89075 7.56044 2.74245C7.79175 2.60919 7.99315 2.46189 8.20851 2.39175L8.74591 2.16931L9.21851 1.97191L8.73495 0.0300293L8.13972 0.174317C7.94929 0.222414 7.71698 0.278526 7.45276 0.34566C7.18257 0.39576 6.89443 0.533035 6.57338 0.658286C6.25632 0.80057 5.88942 0.896763 5.54843 1.12522C5.20545 1.34366 4.80963 1.52602 4.46067 1.81861C4.12267 2.12021 3.71489 2.38173 3.41378 2.7655C3.08476 3.12422 2.75973 3.50097 2.50748 3.92983C2.21535 4.33865 2.01694 4.78754 1.80757 5.23143C1.61813 5.67532 1.46558 6.12923 1.34095 6.57011C1.10466 7.45388 0.998972 8.29356 0.958094 9.01199C0.924195 9.73143 0.944136 10.3296 0.986011 10.7625C1.00097 10.9669 1.02888 11.1653 1.04882 11.3026L1.07375 11.4709L1.09967 11.4649C1.27701 12.2974 1.68523 13.0624 2.27713 13.6715C2.86903 14.2806 3.62041 14.7088 4.44436 14.9066C5.2683 15.1044 6.13114 15.0638 6.93306 14.7894C7.73499 14.515 8.44322 14.018 8.97584 13.356C9.50845 12.6939 9.84369 11.8939 9.94277 11.0484C10.0418 10.2028 9.90071 9.34642 9.5357 8.57815C9.17068 7.80987 8.5967 7.16115 7.88014 6.70703C7.16359 6.25291 6.33375 6.01194 5.48662 6.01199ZM16.454 6.01199C16.2316 6.01199 16.0183 6.04606 15.8059 6.07712C15.8747 5.84466 15.9455 5.60819 16.0591 5.39576C16.1728 5.08714 16.3503 4.81961 16.5268 4.55007C16.6743 4.25849 16.9345 4.06109 17.126 3.81159C17.3264 3.56911 17.5996 3.40778 17.8159 3.20638C18.0283 2.99596 18.3065 2.89075 18.5278 2.74245C18.7591 2.60919 18.9605 2.46189 19.1759 2.39175L19.7133 2.16931L20.1859 1.97191L19.7023 0.0300293L19.1071 0.174317C18.9166 0.222414 18.6843 0.278526 18.4201 0.34566C18.1499 0.39576 17.8618 0.533035 17.5407 0.658286C17.2247 0.801572 16.8568 0.896763 16.5158 1.12622C16.1728 1.34466 15.777 1.52702 15.428 1.81961C15.09 2.12121 14.6822 2.38273 14.3811 2.7655C14.0521 3.12422 13.7271 3.50097 13.4748 3.92983C13.1827 4.33865 12.9843 4.78754 12.7749 5.23143C12.5855 5.67532 12.4329 6.12923 12.3083 6.57011C12.072 7.45388 11.9663 8.29356 11.9254 9.01199C11.8916 9.73143 11.9115 10.3296 11.9534 10.7625C11.9683 10.9669 11.9962 11.1653 12.0162 11.3026L12.0411 11.4709L12.067 11.4649C12.2444 12.2974 12.6526 13.0624 13.2445 13.6715C13.8364 14.2806 14.5878 14.7088 15.4117 14.9066C16.2357 15.1044 17.0985 15.0638 17.9004 14.7894C18.7023 14.515 19.4106 14.018 19.9432 13.356C20.4758 12.6939 20.811 11.8939 20.9101 11.0484C21.0092 10.2028 20.8681 9.34642 20.5031 8.57815C20.138 7.80987 19.5641 7.16115 18.8475 6.70703C18.1309 6.25291 17.3011 6.01194 16.454 6.01199Z" fill="white"/>
</svg>
